<?xml version="1.0" encoding="utf-8"?>
<!-- Generator: Adobe Illustrator 27.8.1, SVG Export Plug-In . SVG Version: 6.00 Build 0)  -->
<svg version="1.1" id="Layer_1" xmlns="http://www.w3.org/2000/svg" xmlns:xlink="http://www.w3.org/1999/xlink" x="0px" y="0px"
	 viewBox="0 0 463 329.3" style="enable-background:new 0 0 463 329.3;" xml:space="preserve">
<style type="text/css">
	.st0{fill:none;stroke:#000000;stroke-width:0.8504;stroke-linecap:round;stroke-linejoin:round;}
	.st1{enable-background:new    ;}
</style>
<path class="st0" d="M445.5,78.7l-10-10h-408l-10,10v232.2l10,10h408l10-10V78.7z"/>
<path class="st0" d="M70,96.6c0,3.9,3.1,7,7,7s7-3.1,7-7s-3.1-7-7-7S70,92.8,70,96.6z"/>
<path class="st0" d="M116,96.6c0,3.9,3.1,7,7,7s7-3.1,7-7s-3.1-7-7-7S116,92.8,116,96.6z"/>
<path class="st0" d="M156,96.6c0,3.9,3.1,7,7,7s7-3.1,7-7s-3.1-7-7-7S156,92.8,156,96.6z"/>
<path class="st0" d="M136,96.6c0,3.9,3.1,7,7,7s7-3.1,7-7s-3.1-7-7-7S136,92.8,136,96.6z"/>
<path class="st0" d="M90,96.6c0,3.9,3.1,7,7,7s7-3.1,7-7s-3.1-7-7-7S90,92.8,90,96.6z"/>
<path class="st0" d="M50,96.6c0,3.9,3.1,7,7,7s7-3.1,7-7s-3.1-7-7-7S50,92.8,50,96.6z"/>
<path class="st0" d="M145.3,170c0,13.2,10.8,24,24,24s24-10.8,24-24s-10.8-24-24-24S145.3,156.7,145.3,170z"/>
<path class="st0" d="M268.3,124.1c0,13.2,10.8,24,24,24s24-10.8,24-24s-10.8-24-24-24S268.3,110.8,268.3,124.1z"/>
<path class="st0" d="M314.9,187c0,13.2,10.8,24,24,24s24-10.8,24-24s-10.8-24-24-24C325.7,163,314.9,173.8,314.9,187z"/>
<path class="st0" d="M373.3,187c0,13.2,10.8,24,24,24s24-10.8,24-24s-10.8-24-24-24S373.3,173.8,373.3,187z"/>
<path class="st0" d="M215.2,147.1c0,13.2,10.8,24,24,24s24-10.8,24-24s-10.8-24-24-24C226,123.1,215.2,133.9,215.2,147.1z"/>
<path class="st0" d="M174.3,276.2c0,16.6,13.4,30,30,30s30-13.4,30-30s-13.4-30-30-30C187.8,246.2,174.3,259.6,174.3,276.2z"/>
<path class="st0" d="M33.9,147c0,13.2,10.8,24,24,24s24-10.8,24-24s-10.8-24-24-24S33.9,133.8,33.9,147z"/>
<path class="st0" d="M326.3,123.8c0,13.2,10.8,24,24,24s24-10.8,24-24s-10.8-24-24-24S326.3,110.6,326.3,123.8z"/>
<path class="st0" d="M384.2,124.3c0,13.2,10.8,24,24,24s24-10.8,24-24s-10.8-24-24-24S384.2,111.1,384.2,124.3z"/>
<path class="st0" d="M257.2,187c0,13.2,10.8,24,24,24s24-10.8,24-24s-10.8-24-24-24S257.2,173.8,257.2,187z"/>
<path class="st0" d="M92.1,147.3c0,13.2,10.8,24,24,24s24-10.8,24-24s-10.8-24-24-24S92.1,134,92.1,147.3z"/>
<path class="st0" d="M204,209.2c0,13.2,10.8,24,24,24s24-10.8,24-24s-10.8-24-24-24C214.7,185.2,204,196,204,209.2z"/>
<g class="st1">
	<path d="M110.2,154.5v-14.3h4.9c1.1,0,2,0.1,2.5,0.2c0.8,0.2,1.5,0.5,2.1,1c0.8,0.6,1.3,1.5,1.7,2.4s0.6,2.1,0.6,3.4
		c0,1.1-0.1,2.1-0.4,2.9s-0.6,1.5-1,2.1s-0.8,1-1.3,1.3s-1,0.6-1.7,0.7s-1.4,0.2-2.3,0.2h-5.1C110.2,154.4,110.2,154.5,110.2,154.5z
		 M112.1,152.8h3.1c0.9,0,1.7-0.1,2.2-0.3s1-0.4,1.3-0.7c0.4-0.4,0.8-1.1,1-1.8s0.4-1.7,0.4-2.8c0-1.5-0.2-2.6-0.7-3.5
		s-1.1-1.3-1.8-1.6c-0.5-0.2-1.3-0.3-2.5-0.3h-3V152.8z"/>
</g>
<g class="st1">
	<path d="M163,177.2v-14.3h6.3c1.3,0,2.2,0.1,2.9,0.4s1.2,0.7,1.6,1.4s0.6,1.4,0.6,2.2c0,1-0.3,1.9-1,2.6s-1.7,1.1-3,1.3
		c0.5,0.2,0.9,0.5,1.1,0.7c0.6,0.5,1.1,1.1,1.6,1.9l2.5,3.9h-2.4l-1.9-3c-0.6-0.9-1-1.5-1.4-2s-0.7-0.8-1-1s-0.6-0.3-0.9-0.4
		c-0.2,0-0.6-0.1-1.1-0.1h-2.2v6.4L163,177.2L163,177.2z M164.9,169.2h4.1c0.9,0,1.5-0.1,2-0.3s0.9-0.5,1.1-0.9s0.4-0.8,0.4-1.3
		c0-0.7-0.2-1.2-0.7-1.7s-1.3-0.7-2.3-0.7H165v4.9H164.9z"/>
</g>
<g class="st1">
	<path d="M208,268.9h1.9v8.3c0,1.4-0.2,2.6-0.5,3.4s-0.9,1.5-1.8,2.1s-2,0.8-3.3,0.8s-2.4-0.2-3.3-0.7s-1.5-1.1-1.8-2
		s-0.5-2.1-0.5-3.6v-8.3h1.9v8.3c0,1.2,0.1,2.2,0.3,2.7s0.6,1,1.2,1.4s1.3,0.5,2.1,0.5c1.4,0,2.4-0.3,3-0.9s0.9-1.8,0.9-3.6
		L208,268.9L208,268.9z"/>
</g>
<g class="st1">
	<path d="M229.6,154.3V140h5.4c1,0,1.7,0,2.2,0.1c0.7,0.1,1.3,0.3,1.8,0.7c0.5,0.3,0.9,0.8,1.1,1.4c0.3,0.6,0.4,1.2,0.4,2
		c0,1.2-0.4,2.2-1.2,3.1c-0.8,0.8-2.2,1.3-4.2,1.3h-3.7v5.8h-1.8V154.3z M231.5,146.8h3.7c1.2,0,2.1-0.2,2.6-0.7s0.8-1.1,0.8-1.9
		c0-0.6-0.2-1.1-0.5-1.5s-0.7-0.7-1.2-0.8c-0.3-0.1-0.9-0.1-1.8-0.1h-3.7L231.5,146.8L231.5,146.8z"/>
	<path d="M248.8,154.3H247v-11.2c-0.4,0.4-1,0.8-1.7,1.2s-1.3,0.7-1.9,0.9v-1.7c1-0.5,1.8-1,2.6-1.7c0.7-0.7,1.3-1.3,1.6-1.9h1.1
		L248.8,154.3L248.8,154.3z"/>
</g>
<g class="st1">
	<path d="M281.4,131.3V117h5.4c1,0,1.7,0,2.2,0.1c0.7,0.1,1.3,0.3,1.8,0.7c0.5,0.3,0.9,0.8,1.1,1.4c0.3,0.6,0.4,1.2,0.4,2
		c0,1.2-0.4,2.2-1.2,3.1c-0.8,0.8-2.2,1.3-4.2,1.3h-3.7v5.8L281.4,131.3L281.4,131.3z M283.3,123.8h3.7c1.2,0,2.1-0.2,2.6-0.7
		s0.8-1.1,0.8-1.9c0-0.6-0.2-1.1-0.5-1.5s-0.7-0.7-1.2-0.8c-0.3-0.1-0.9-0.1-1.8-0.1h-3.7v5H283.3z"/>
	<path d="M303.2,129.6v1.7h-9.5c0-0.4,0.1-0.8,0.2-1.2c0.2-0.6,0.6-1.3,1.2-1.9c0.5-0.6,1.3-1.3,2.3-2.2c1.6-1.3,2.6-2.3,3.2-3
		s0.8-1.5,0.8-2.1c0-0.7-0.2-1.3-0.7-1.8s-1.1-0.7-1.9-0.7s-1.5,0.3-2,0.8s-0.8,1.2-0.8,2.1l-1.8-0.2c0.1-1.3,0.6-2.4,1.4-3.1
		s1.9-1.1,3.3-1.1s2.5,0.4,3.3,1.1s1.2,1.7,1.2,2.8c0,0.6-0.1,1.1-0.4,1.7s-0.6,1.1-1.2,1.7c-0.5,0.6-1.4,1.5-2.7,2.5
		c-1.1,0.9-1.7,1.5-2,1.8s-0.5,0.6-0.7,1L303.2,129.6L303.2,129.6z"/>
</g>
<g class="st1">
	<path d="M339.3,130.9v-14.3h5.4c1,0,1.7,0,2.2,0.1c0.7,0.1,1.3,0.3,1.8,0.7c0.5,0.3,0.9,0.8,1.1,1.4c0.3,0.6,0.4,1.2,0.4,2
		c0,1.2-0.4,2.2-1.2,3.1c-0.8,0.8-2.2,1.3-4.2,1.3h-3.7v5.8L339.3,130.9L339.3,130.9z M341.2,123.4h3.7c1.2,0,2.1-0.2,2.6-0.7
		s0.8-1.1,0.8-1.9c0-0.6-0.2-1.1-0.5-1.5s-0.7-0.7-1.2-0.8c-0.3-0.1-0.9-0.1-1.8-0.1h-3.7v5H341.2z"/>
	<path d="M351.9,127.1l1.8-0.2c0.2,1,0.5,1.7,1,2.2c0.5,0.4,1.1,0.7,1.8,0.7c0.8,0,1.5-0.3,2.1-0.9c0.6-0.6,0.9-1.3,0.9-2.1
		c0-0.8-0.3-1.5-0.8-2s-1.2-0.8-2-0.8c-0.3,0-0.7,0.1-1.2,0.2l0.2-1.5c0.1,0,0.2,0,0.3,0c0.7,0,1.4-0.2,2-0.6s0.9-1,0.9-1.8
		c0-0.6-0.2-1.2-0.7-1.6c-0.4-0.4-1-0.6-1.7-0.6s-1.3,0.2-1.7,0.6c-0.5,0.4-0.7,1.1-0.9,1.9l-1.8-0.3c0.2-1.2,0.7-2.1,1.5-2.7
		s1.7-1,2.8-1c0.8,0,1.5,0.2,2.2,0.5s1.2,0.8,1.5,1.4s0.5,1.2,0.5,1.8c0,0.6-0.2,1.2-0.5,1.7s-0.8,0.9-1.5,1.2
		c0.8,0.2,1.5,0.6,2,1.2s0.7,1.4,0.7,2.3c0,1.2-0.5,2.3-1.4,3.2s-2.1,1.3-3.5,1.3c-1.3,0-2.3-0.4-3.1-1.1S352,128.3,351.9,127.1z"/>
</g>
<g class="st1">
	<path d="M397.2,131.5v-14.3h5.4c1,0,1.7,0,2.2,0.1c0.7,0.1,1.3,0.3,1.8,0.7c0.5,0.3,0.9,0.8,1.1,1.4c0.3,0.6,0.4,1.2,0.4,2
		c0,1.2-0.4,2.2-1.2,3.1c-0.8,0.8-2.2,1.3-4.2,1.3H399v5.8L397.2,131.5L397.2,131.5z M399.1,123.9h3.7c1.2,0,2.1-0.2,2.6-0.7
		s0.8-1.1,0.8-1.9c0-0.6-0.2-1.1-0.5-1.5s-0.7-0.7-1.2-0.8c-0.3-0.1-0.9-0.1-1.8-0.1H399v5H399.1z"/>
	<path d="M415.5,131.5v-3.4h-6.2v-1.6l6.5-9.3h1.4v9.3h1.9v1.6h-1.9v3.4H415.5z M415.5,126.4v-6.5l-4.5,6.5H415.5z"/>
</g>
<g class="st1">
	<path d="M218.3,216.4v-14.3h1.9v7.1l7.1-7.1h2.6l-6,5.8l6.3,8.5h-2.5l-5.1-7.2l-2.3,2.3v5h-2V216.4z"/>
	<path d="M237.7,216.4h-1.8v-11.2c-0.4,0.4-1,0.8-1.7,1.2s-1.3,0.7-1.9,0.9v-1.7c1-0.5,1.8-1,2.6-1.7c0.7-0.7,1.3-1.3,1.6-1.9h1.1
		L237.7,216.4L237.7,216.4z"/>
</g>
<g class="st1">
	<path d="M270.2,192.9v-14.3h1.9v7.1l7.1-7.1h2.6l-6,5.8l6.3,8.5h-2.5l-5.1-7.2l-2.3,2.3v5h-2V192.9z"/>
	<path d="M292.2,191.2v1.7h-9.5c0-0.4,0.1-0.8,0.2-1.2c0.2-0.6,0.6-1.3,1.2-1.9c0.5-0.6,1.3-1.3,2.3-2.2c1.6-1.3,2.6-2.3,3.2-3
		s0.8-1.5,0.8-2.1c0-0.7-0.2-1.3-0.7-1.8s-1.1-0.7-1.9-0.7s-1.5,0.3-2,0.8s-0.8,1.2-0.8,2.1l-1.8-0.2c0.1-1.3,0.6-2.4,1.4-3.1
		c0.8-0.7,1.9-1.1,3.3-1.1s2.5,0.4,3.3,1.1s1.2,1.7,1.2,2.8c0,0.6-0.1,1.1-0.4,1.7s-0.6,1.1-1.2,1.7c-0.5,0.6-1.4,1.5-2.7,2.5
		c-1.1,0.9-1.7,1.5-2,1.8s-0.5,0.6-0.7,1L292.2,191.2L292.2,191.2z"/>
</g>
<g class="st1">
	<path d="M327.9,194.1v-14.3h1.9v7.1l7.1-7.1h2.6l-6,5.8l6.3,8.5h-2.5l-5.1-7.2l-2.3,2.3v5h-2V194.1z"/>
	<path d="M340.6,190.3l1.8-0.2c0.2,1,0.5,1.7,1,2.2c0.5,0.4,1.1,0.7,1.8,0.7c0.8,0,1.5-0.3,2.1-0.9c0.6-0.6,0.9-1.3,0.9-2.1
		s-0.3-1.5-0.8-2s-1.2-0.8-2-0.8c-0.3,0-0.7,0.1-1.2,0.2l0.2-1.5c0.1,0,0.2,0,0.3,0c0.7,0,1.4-0.2,2-0.6c0.6-0.4,0.9-1,0.9-1.8
		c0-0.6-0.2-1.2-0.7-1.6c-0.4-0.4-1-0.6-1.7-0.6s-1.3,0.2-1.7,0.6c-0.5,0.4-0.7,1.1-0.9,1.9l-1.8-0.3c0.2-1.2,0.7-2.1,1.5-2.7
		s1.7-1,2.8-1c0.8,0,1.5,0.2,2.2,0.5s1.2,0.8,1.5,1.4c0.3,0.6,0.5,1.2,0.5,1.8s-0.2,1.2-0.5,1.7s-0.8,0.9-1.5,1.2
		c0.8,0.2,1.5,0.6,2,1.2s0.7,1.4,0.7,2.3c0,1.2-0.5,2.3-1.4,3.2s-2.1,1.3-3.5,1.3c-1.3,0-2.3-0.4-3.1-1.1S340.7,191.5,340.6,190.3z"
		/>
</g>
<g class="st1">
	<path d="M386.3,194.2v-14.3h1.9v7.1l7.1-7.1h2.6l-6,5.8l6.3,8.5h-2.5l-5.1-7.2l-2.3,2.3v5h-2V194.2z"/>
	<path d="M404.6,194.2v-3.4h-6.2v-1.6l6.5-9.3h1.4v9.3h1.9v1.6h-1.9v3.4H404.6z M404.6,189.1v-6.5l-4.5,6.5H404.6z"/>
</g>
<path class="st0" d="M85.5,47.6c0,7.7,6.3,14,14,14s14-6.3,14-14s-6.3-14-14-14S85.5,39.9,85.5,47.6z"/>
<path class="st0" d="M177.5,47.6c0,7.7,6.3,14,14,14s14-6.3,14-14s-6.3-14-14-14S177.5,39.9,177.5,47.6z"/>
<path class="st0" d="M257.5,47.6c0,7.7,6.3,14,14,14s14-6.3,14-14s-6.3-14-14-14S257.5,39.9,257.5,47.6z"/>
<path class="st0" d="M217.5,47.6c0,7.7,6.3,14,14,14s14-6.3,14-14s-6.3-14-14-14S217.5,39.9,217.5,47.6z"/>
<path class="st0" d="M125.5,47.6c0,7.7,6.3,14,14,14s14-6.3,14-14s-6.3-14-14-14S125.5,39.9,125.5,47.6z"/>
<path class="st0" d="M45.5,47.6c0,7.7,6.3,14,14,14s14-6.3,14-14s-6.3-14-14-14S45.5,39.9,45.5,47.6z"/>
<g>
	<path d="M53.4,154.2v-14.3h1.9v12.6h7.1v1.7H53.4z"/>
</g>
<g class="st1">
	<path d="M54.7,28.9v-7.2h0.9v6.3h3.5v0.8H54.7z"/>
	<path d="M59.9,27l0.9-0.1c0.1,0.5,0.3,0.9,0.5,1.1c0.2,0.2,0.5,0.3,0.9,0.3c0.4,0,0.8-0.1,1-0.4s0.4-0.6,0.4-1.1
		c0-0.4-0.1-0.7-0.4-1c-0.3-0.3-0.6-0.4-1-0.4c-0.2,0-0.4,0-0.6,0.1l0.1-0.8c0.1,0,0.1,0,0.1,0c0.4,0,0.7-0.1,1-0.3s0.4-0.5,0.4-0.9
		c0-0.3-0.1-0.6-0.3-0.8s-0.5-0.3-0.8-0.3c-0.3,0-0.6,0.1-0.9,0.3s-0.4,0.5-0.4,1L60,23.6c0.1-0.6,0.4-1,0.7-1.4
		c0.4-0.3,0.9-0.5,1.4-0.5c0.4,0,0.8,0.1,1.1,0.3c0.3,0.2,0.6,0.4,0.8,0.7s0.3,0.6,0.3,0.9c0,0.3-0.1,0.6-0.2,0.8s-0.4,0.5-0.7,0.6
		c0.4,0.1,0.8,0.3,1,0.6c0.2,0.3,0.4,0.7,0.4,1.2c0,0.6-0.2,1.2-0.7,1.6c-0.5,0.4-1,0.7-1.7,0.7c-0.6,0-1.1-0.2-1.6-0.6
		S60,27.6,59.9,27z"/>
</g>
<g class="st1">
	<path d="M93.9,28.9v-7.2h3.2c0.6,0,1.1,0.1,1.5,0.2c0.3,0.1,0.6,0.4,0.8,0.7s0.3,0.7,0.3,1.1c0,0.5-0.2,0.9-0.5,1.3
		s-0.8,0.6-1.5,0.7c0.3,0.1,0.4,0.2,0.6,0.4c0.3,0.3,0.5,0.6,0.8,1l1.2,1.9H99l-0.9-1.5c-0.3-0.4-0.5-0.8-0.7-1S97,26.1,96.9,26
		s-0.3-0.2-0.4-0.2c-0.1,0-0.3,0-0.5,0h-1.1v3.2H93.9z M94.8,24.9h2c0.4,0,0.8,0,1-0.1c0.2-0.1,0.4-0.2,0.6-0.4
		c0.1-0.2,0.2-0.4,0.2-0.6c0-0.3-0.1-0.6-0.4-0.8s-0.6-0.3-1.2-0.3h-2.3V24.9z"/>
	<path d="M100.8,27l0.9-0.1c0.1,0.5,0.3,0.9,0.5,1.1c0.2,0.2,0.5,0.3,0.9,0.3c0.4,0,0.8-0.1,1-0.4s0.4-0.6,0.4-1.1
		c0-0.4-0.1-0.7-0.4-1c-0.3-0.3-0.6-0.4-1-0.4c-0.2,0-0.4,0-0.6,0.1l0.1-0.8c0.1,0,0.1,0,0.1,0c0.4,0,0.7-0.1,1-0.3s0.4-0.5,0.4-0.9
		c0-0.3-0.1-0.6-0.3-0.8s-0.5-0.3-0.8-0.3c-0.3,0-0.6,0.1-0.9,0.3s-0.4,0.5-0.4,1l-0.9-0.2c0.1-0.6,0.4-1,0.7-1.4
		c0.4-0.3,0.9-0.5,1.4-0.5c0.4,0,0.8,0.1,1.1,0.3c0.3,0.2,0.6,0.4,0.8,0.7s0.3,0.6,0.3,0.9c0,0.3-0.1,0.6-0.2,0.8s-0.4,0.5-0.7,0.6
		c0.4,0.1,0.8,0.3,1,0.6c0.2,0.3,0.4,0.7,0.4,1.2c0,0.6-0.2,1.2-0.7,1.6c-0.5,0.4-1,0.7-1.7,0.7c-0.6,0-1.1-0.2-1.6-0.6
		S100.8,27.6,100.8,27z"/>
</g>
<g class="st1">
	<path d="M119.9,16.9v-6.3h-2.4V9.8h5.7v0.8h-2.4v6.3H119.9z"/>
	<path d="M122.6,14.3c0-1,0.3-1.7,0.8-2.1c0.4-0.4,1-0.6,1.6-0.6c0.7,0,1.3,0.2,1.7,0.7c0.5,0.5,0.7,1.1,0.7,1.9
		c0,0.7-0.1,1.2-0.3,1.6c-0.2,0.4-0.5,0.7-0.9,0.9c-0.4,0.2-0.8,0.3-1.3,0.3c-0.7,0-1.3-0.2-1.8-0.7
		C122.8,15.9,122.6,15.2,122.6,14.3z M123.5,14.3c0,0.7,0.1,1.2,0.4,1.5c0.3,0.3,0.7,0.5,1.1,0.5c0.4,0,0.8-0.2,1.1-0.5
		c0.3-0.3,0.4-0.8,0.4-1.5c0-0.6-0.1-1.1-0.4-1.5c-0.3-0.3-0.7-0.5-1.1-0.5c-0.4,0-0.8,0.2-1.1,0.5
		C123.6,13.2,123.5,13.7,123.5,14.3z"/>
	<path d="M131.9,16.9v-0.8c-0.4,0.6-1,0.9-1.6,0.9c-0.3,0-0.6-0.1-0.9-0.2c-0.3-0.1-0.5-0.3-0.6-0.4c-0.1-0.2-0.2-0.4-0.3-0.7
		c0-0.2-0.1-0.4-0.1-0.8v-3.2h0.9v2.9c0,0.5,0,0.8,0.1,0.9c0.1,0.2,0.2,0.4,0.4,0.5c0.2,0.1,0.4,0.2,0.7,0.2s0.5-0.1,0.7-0.2
		c0.2-0.1,0.4-0.3,0.5-0.6c0.1-0.2,0.1-0.6,0.1-1v-2.8h0.9v5.2H131.9z"/>
	<path d="M137.4,15l0.9,0.1c-0.1,0.6-0.3,1.1-0.7,1.4c-0.4,0.3-0.9,0.5-1.4,0.5c-0.7,0-1.3-0.2-1.7-0.7c-0.4-0.5-0.6-1.1-0.6-2
		c0-0.6,0.1-1,0.3-1.5s0.5-0.7,0.8-0.9c0.4-0.2,0.8-0.3,1.2-0.3c0.6,0,1,0.1,1.4,0.4c0.4,0.3,0.6,0.7,0.7,1.2l-0.9,0.1
		c-0.1-0.3-0.2-0.6-0.4-0.8c-0.2-0.2-0.5-0.3-0.8-0.3c-0.4,0-0.8,0.2-1.1,0.5c-0.3,0.3-0.4,0.8-0.4,1.5c0,0.7,0.1,1.2,0.4,1.5
		c0.3,0.3,0.6,0.5,1,0.5c0.3,0,0.6-0.1,0.9-0.3C137.2,15.8,137.4,15.5,137.4,15z"/>
	<path d="M139,16.9V9.8h0.9v2.6c0.4-0.5,0.9-0.7,1.6-0.7c0.4,0,0.7,0.1,1,0.2c0.3,0.2,0.5,0.4,0.6,0.6s0.2,0.7,0.2,1.2v3.3h-0.9
		v-3.3c0-0.4-0.1-0.8-0.3-1c-0.2-0.2-0.5-0.3-0.8-0.3c-0.3,0-0.5,0.1-0.7,0.2c-0.2,0.1-0.4,0.3-0.5,0.5s-0.1,0.5-0.1,1v2.8H139z"/>
	<path d="M144.6,18.9v-7.2h0.8v0.7c0.2-0.3,0.4-0.5,0.6-0.6c0.2-0.1,0.5-0.2,0.9-0.2c0.4,0,0.8,0.1,1.2,0.3c0.3,0.2,0.6,0.5,0.8,1
		c0.2,0.4,0.3,0.9,0.3,1.4c0,0.5-0.1,1-0.3,1.4c-0.2,0.4-0.5,0.8-0.8,1c-0.4,0.2-0.7,0.3-1.1,0.3c-0.3,0-0.6-0.1-0.8-0.2
		c-0.2-0.1-0.4-0.3-0.6-0.5v2.5H144.6z M145.4,14.4c0,0.7,0.1,1.2,0.4,1.5c0.3,0.3,0.6,0.5,1,0.5c0.4,0,0.7-0.2,1-0.5
		c0.3-0.3,0.4-0.8,0.4-1.5c0-0.7-0.1-1.2-0.4-1.5c-0.3-0.3-0.6-0.5-1-0.5c-0.4,0-0.7,0.2-1,0.5C145.5,13.2,145.4,13.7,145.4,14.4z"
		/>
	<path d="M153.5,16.3c-0.3,0.3-0.6,0.5-0.9,0.6c-0.3,0.1-0.6,0.2-1,0.2c-0.6,0-1-0.1-1.3-0.4c-0.3-0.3-0.5-0.6-0.5-1.1
		c0-0.3,0.1-0.5,0.2-0.7c0.1-0.2,0.3-0.4,0.5-0.5c0.2-0.1,0.4-0.2,0.6-0.3c0.2,0,0.4-0.1,0.8-0.1c0.7-0.1,1.2-0.2,1.6-0.3
		c0-0.1,0-0.2,0-0.2c0-0.4-0.1-0.6-0.2-0.8c-0.2-0.2-0.6-0.3-1-0.3c-0.4,0-0.7,0.1-0.9,0.2c-0.2,0.1-0.3,0.4-0.4,0.8l-0.9-0.1
		c0.1-0.4,0.2-0.7,0.4-0.9c0.2-0.2,0.4-0.4,0.8-0.5c0.3-0.1,0.7-0.2,1.2-0.2c0.4,0,0.8,0.1,1.1,0.2c0.3,0.1,0.5,0.2,0.6,0.4
		c0.1,0.2,0.2,0.4,0.3,0.6c0,0.1,0,0.4,0,0.8v1.2c0,0.8,0,1.3,0.1,1.5c0,0.2,0.1,0.4,0.2,0.6h-0.9C153.6,16.8,153.6,16.5,153.5,16.3
		z M153.5,14.3c-0.3,0.1-0.8,0.2-1.4,0.3c-0.4,0.1-0.6,0.1-0.8,0.2c-0.1,0.1-0.3,0.2-0.3,0.3c-0.1,0.1-0.1,0.3-0.1,0.4
		c0,0.2,0.1,0.4,0.3,0.6c0.2,0.2,0.4,0.2,0.8,0.2c0.3,0,0.6-0.1,0.9-0.2c0.3-0.1,0.5-0.4,0.6-0.6c0.1-0.2,0.1-0.5,0.1-0.9V14.3z"/>
	<path d="M159.1,16.9v-0.7c-0.3,0.5-0.8,0.8-1.5,0.8c-0.4,0-0.8-0.1-1.1-0.3s-0.6-0.5-0.8-1c-0.2-0.4-0.3-0.9-0.3-1.4
		c0-0.5,0.1-1,0.3-1.4c0.2-0.4,0.4-0.7,0.8-1c0.3-0.2,0.7-0.3,1.2-0.3c0.3,0,0.6,0.1,0.8,0.2c0.2,0.1,0.4,0.3,0.6,0.5V9.8h0.9v7.2
		H159.1z M156.3,14.3c0,0.7,0.1,1.2,0.4,1.5c0.3,0.3,0.6,0.5,1,0.5c0.4,0,0.7-0.2,1-0.5c0.3-0.3,0.4-0.8,0.4-1.4
		c0-0.7-0.1-1.2-0.4-1.6s-0.6-0.5-1-0.5c-0.4,0-0.7,0.2-1,0.5C156.4,13.2,156.3,13.7,156.3,14.3z"/>
</g>
<g class="st1">
	<path d="M127.6,26.4l0.9,0.2c-0.2,0.8-0.6,1.4-1.1,1.8c-0.5,0.4-1.1,0.6-1.9,0.6c-0.8,0-1.4-0.2-1.9-0.5c-0.5-0.3-0.9-0.8-1.1-1.4
		c-0.3-0.6-0.4-1.2-0.4-1.9c0-0.7,0.1-1.4,0.4-2c0.3-0.6,0.7-1,1.2-1.3c0.5-0.3,1.1-0.4,1.7-0.4c0.7,0,1.3,0.2,1.8,0.5
		s0.8,0.9,1,1.5l-0.9,0.2c-0.2-0.5-0.4-0.9-0.7-1.1c-0.3-0.2-0.7-0.4-1.2-0.4c-0.5,0-1,0.1-1.4,0.4c-0.4,0.3-0.6,0.6-0.8,1.1
		c-0.1,0.4-0.2,0.9-0.2,1.4c0,0.6,0.1,1.1,0.3,1.6c0.2,0.5,0.5,0.8,0.8,1c0.4,0.2,0.8,0.3,1.2,0.3c0.5,0,1-0.2,1.3-0.5
		C127.3,27.5,127.5,27,127.6,26.4z"/>
	<path d="M133,28.3c-0.3,0.3-0.6,0.5-0.9,0.6c-0.3,0.1-0.6,0.2-1,0.2c-0.6,0-1-0.1-1.3-0.4c-0.3-0.3-0.5-0.6-0.5-1.1
		c0-0.3,0.1-0.5,0.2-0.7c0.1-0.2,0.3-0.4,0.5-0.5c0.2-0.1,0.4-0.2,0.6-0.3c0.2,0,0.4-0.1,0.8-0.1c0.7-0.1,1.2-0.2,1.6-0.3
		c0-0.1,0-0.2,0-0.2c0-0.4-0.1-0.6-0.2-0.8c-0.2-0.2-0.6-0.3-1-0.3c-0.4,0-0.7,0.1-0.9,0.2c-0.2,0.1-0.3,0.4-0.4,0.8l-0.9-0.1
		c0.1-0.4,0.2-0.7,0.4-0.9c0.2-0.2,0.4-0.4,0.8-0.5c0.3-0.1,0.7-0.2,1.2-0.2c0.4,0,0.8,0.1,1.1,0.2c0.3,0.1,0.5,0.2,0.6,0.4
		c0.1,0.2,0.2,0.4,0.3,0.6c0,0.1,0,0.4,0,0.8v1.2c0,0.8,0,1.3,0.1,1.5c0,0.2,0.1,0.4,0.2,0.6h-0.9C133.1,28.8,133.1,28.5,133,28.3z
		 M133,26.3c-0.3,0.1-0.8,0.2-1.4,0.3c-0.4,0.1-0.6,0.1-0.8,0.2c-0.1,0.1-0.3,0.2-0.3,0.3c-0.1,0.1-0.1,0.3-0.1,0.4
		c0,0.2,0.1,0.4,0.3,0.6c0.2,0.2,0.4,0.2,0.8,0.2c0.3,0,0.6-0.1,0.9-0.2c0.3-0.1,0.5-0.4,0.6-0.6c0.1-0.2,0.1-0.5,0.1-0.9V26.3z"/>
	<path d="M135.2,30.9v-7.2h0.8v0.7c0.2-0.3,0.4-0.5,0.6-0.6c0.2-0.1,0.5-0.2,0.9-0.2c0.4,0,0.8,0.1,1.2,0.3c0.3,0.2,0.6,0.5,0.8,1
		c0.2,0.4,0.3,0.9,0.3,1.4c0,0.5-0.1,1-0.3,1.4c-0.2,0.4-0.5,0.8-0.8,1c-0.4,0.2-0.7,0.3-1.1,0.3c-0.3,0-0.6-0.1-0.8-0.2
		c-0.2-0.1-0.4-0.3-0.6-0.5v2.5H135.2z M136,26.4c0,0.7,0.1,1.2,0.4,1.5c0.3,0.3,0.6,0.5,1,0.5c0.4,0,0.7-0.2,1-0.5
		c0.3-0.3,0.4-0.8,0.4-1.5c0-0.7-0.1-1.2-0.4-1.5c-0.3-0.3-0.6-0.5-1-0.5c-0.4,0-0.7,0.2-1,0.5C136.1,25.2,136,25.7,136,26.4z"/>
	<path d="M142.7,28.2l0.1,0.8c-0.2,0.1-0.5,0.1-0.7,0.1c-0.3,0-0.6-0.1-0.7-0.2s-0.3-0.2-0.4-0.4c-0.1-0.2-0.1-0.5-0.1-1v-3h-0.6
		v-0.7h0.6v-1.3l0.9-0.5v1.8h0.9v0.7h-0.9v3c0,0.3,0,0.4,0,0.5c0,0.1,0.1,0.1,0.2,0.2c0.1,0,0.2,0.1,0.3,0.1
		C142.4,28.2,142.5,28.2,142.7,28.2z"/>
	<path d="M146.9,28.9v-0.8c-0.4,0.6-1,0.9-1.6,0.9c-0.3,0-0.6-0.1-0.9-0.2c-0.3-0.1-0.5-0.3-0.6-0.4c-0.1-0.2-0.2-0.4-0.3-0.7
		c0-0.2-0.1-0.4-0.1-0.8v-3.2h0.9v2.9c0,0.5,0,0.8,0.1,0.9c0.1,0.2,0.2,0.4,0.4,0.5c0.2,0.1,0.4,0.2,0.7,0.2s0.5-0.1,0.7-0.2
		c0.2-0.1,0.4-0.3,0.5-0.6c0.1-0.2,0.1-0.6,0.1-1v-2.8h0.9v5.2H146.9z"/>
	<path d="M149.1,28.9v-5.2h0.8v0.8c0.2-0.4,0.4-0.6,0.6-0.7s0.4-0.2,0.6-0.2c0.3,0,0.6,0.1,0.9,0.3l-0.3,0.8
		c-0.2-0.1-0.4-0.2-0.6-0.2c-0.2,0-0.4,0.1-0.5,0.2c-0.2,0.1-0.3,0.3-0.3,0.5c-0.1,0.3-0.1,0.7-0.1,1v2.7H149.1z"/>
	<path d="M156,27.3l0.9,0.1c-0.1,0.5-0.4,0.9-0.8,1.2c-0.4,0.3-0.9,0.4-1.5,0.4c-0.8,0-1.4-0.2-1.8-0.7c-0.4-0.5-0.7-1.1-0.7-2
		c0-0.9,0.2-1.5,0.7-2s1-0.7,1.7-0.7c0.7,0,1.3,0.2,1.7,0.7s0.7,1.1,0.7,2c0,0.1,0,0.1,0,0.2H153c0,0.6,0.2,1,0.5,1.3
		c0.3,0.3,0.7,0.5,1.1,0.5c0.3,0,0.6-0.1,0.8-0.3C155.7,27.9,155.9,27.6,156,27.3z M153.1,25.8h2.9c0-0.4-0.1-0.8-0.3-1
		c-0.3-0.3-0.6-0.5-1.1-0.5c-0.4,0-0.7,0.1-1,0.4C153.3,25,153.1,25.4,153.1,25.8z"/>
</g>
<g class="st1">
	<path d="M179,28.9v-7.2h0.9v2.9h3.7v-2.9h0.9v7.2h-0.9v-3.4h-3.7v3.4H179z"/>
	<path d="M185.7,26.3c0-1,0.3-1.7,0.8-2.1c0.4-0.4,1-0.6,1.6-0.6c0.7,0,1.3,0.2,1.7,0.7c0.5,0.5,0.7,1.1,0.7,1.9
		c0,0.7-0.1,1.2-0.3,1.6c-0.2,0.4-0.5,0.7-0.9,0.9s-0.8,0.3-1.3,0.3c-0.7,0-1.3-0.2-1.8-0.7S185.7,27.2,185.7,26.3z M186.6,26.3
		c0,0.7,0.1,1.2,0.4,1.5c0.3,0.3,0.7,0.5,1.1,0.5c0.4,0,0.8-0.2,1.1-0.5s0.4-0.8,0.4-1.5c0-0.6-0.1-1.1-0.4-1.5
		c-0.3-0.3-0.7-0.5-1.1-0.5c-0.4,0-0.8,0.2-1.1,0.5S186.6,25.7,186.6,26.3z"/>
	<path d="M191.6,28.9v-5.2h0.8v0.7c0.2-0.3,0.4-0.5,0.6-0.6c0.3-0.2,0.6-0.2,0.9-0.2c0.4,0,0.7,0.1,0.9,0.2s0.4,0.4,0.5,0.7
		c0.4-0.6,0.9-0.9,1.6-0.9c0.5,0,0.9,0.1,1.2,0.4c0.3,0.3,0.4,0.7,0.4,1.3v3.6h-0.9v-3.3c0-0.4,0-0.6-0.1-0.8
		c-0.1-0.2-0.2-0.3-0.3-0.4s-0.3-0.1-0.5-0.1c-0.4,0-0.7,0.1-0.9,0.4c-0.2,0.2-0.4,0.6-0.4,1.2v3h-0.9v-3.4c0-0.4-0.1-0.7-0.2-0.9
		s-0.4-0.3-0.7-0.3c-0.2,0-0.5,0.1-0.7,0.2s-0.4,0.3-0.5,0.6s-0.1,0.6-0.1,1.1v2.7H191.6z"/>
	<path d="M203.5,27.3l0.9,0.1c-0.1,0.5-0.4,0.9-0.8,1.2s-0.9,0.4-1.5,0.4c-0.8,0-1.4-0.2-1.8-0.7c-0.4-0.5-0.7-1.1-0.7-2
		c0-0.9,0.2-1.5,0.7-2s1-0.7,1.7-0.7c0.7,0,1.3,0.2,1.7,0.7s0.7,1.1,0.7,2c0,0.1,0,0.1,0,0.2h-3.9c0,0.6,0.2,1,0.5,1.3
		s0.7,0.5,1.1,0.5c0.3,0,0.6-0.1,0.8-0.3S203.4,27.6,203.5,27.3z M200.6,25.8h2.9c0-0.4-0.1-0.8-0.3-1c-0.3-0.3-0.6-0.5-1.1-0.5
		c-0.4,0-0.7,0.1-1,0.4S200.6,25.4,200.6,25.8z"/>
</g>
<g class="st1">
	<path d="M218.1,26.6l0.9-0.1c0,0.4,0.1,0.7,0.3,0.9c0.2,0.2,0.4,0.4,0.7,0.6c0.3,0.1,0.7,0.2,1.1,0.2c0.4,0,0.7-0.1,1-0.2
		s0.5-0.3,0.6-0.4c0.1-0.2,0.2-0.4,0.2-0.6c0-0.2-0.1-0.4-0.2-0.6c-0.1-0.2-0.3-0.3-0.6-0.4c-0.2-0.1-0.6-0.2-1.3-0.3
		c-0.7-0.2-1.1-0.3-1.4-0.4c-0.3-0.2-0.6-0.4-0.8-0.7c-0.2-0.3-0.3-0.6-0.3-0.9c0-0.4,0.1-0.7,0.3-1c0.2-0.3,0.5-0.6,0.9-0.7
		s0.8-0.2,1.3-0.2c0.5,0,1,0.1,1.4,0.3c0.4,0.2,0.7,0.4,0.9,0.8s0.3,0.7,0.4,1.1l-0.9,0.1c0-0.5-0.2-0.8-0.5-1s-0.7-0.3-1.2-0.3
		c-0.6,0-1,0.1-1.3,0.3c-0.3,0.2-0.4,0.5-0.4,0.8c0,0.3,0.1,0.5,0.3,0.6c0.2,0.2,0.7,0.3,1.4,0.5c0.8,0.2,1.3,0.3,1.6,0.5
		c0.4,0.2,0.7,0.4,0.9,0.7c0.2,0.3,0.3,0.6,0.3,1c0,0.4-0.1,0.7-0.3,1.1c-0.2,0.3-0.5,0.6-0.9,0.8c-0.4,0.2-0.9,0.3-1.4,0.3
		c-0.6,0-1.2-0.1-1.6-0.3s-0.8-0.5-1-0.9C218.2,27.5,218.1,27.1,218.1,26.6z"/>
	<path d="M228.5,27.3l0.9,0.1c-0.1,0.5-0.4,0.9-0.8,1.2s-0.9,0.4-1.5,0.4c-0.8,0-1.4-0.2-1.8-0.7c-0.4-0.5-0.7-1.1-0.7-2
		c0-0.9,0.2-1.5,0.7-2s1-0.7,1.7-0.7c0.7,0,1.3,0.2,1.7,0.7s0.7,1.1,0.7,2c0,0.1,0,0.1,0,0.2h-3.9c0,0.6,0.2,1,0.5,1.3
		s0.7,0.5,1.1,0.5c0.3,0,0.6-0.1,0.8-0.3S228.3,27.6,228.5,27.3z M225.6,25.8h2.9c0-0.4-0.1-0.8-0.3-1c-0.3-0.3-0.6-0.5-1.1-0.5
		c-0.4,0-0.7,0.1-1,0.4S225.6,25.4,225.6,25.8z"/>
	<path d="M230.5,28.9v-7.2h0.9v7.2H230.5z"/>
	<path d="M236.3,27.3l0.9,0.1c-0.1,0.5-0.4,0.9-0.8,1.2s-0.9,0.4-1.5,0.4c-0.8,0-1.4-0.2-1.8-0.7c-0.4-0.5-0.7-1.1-0.7-2
		c0-0.9,0.2-1.5,0.7-2s1-0.7,1.7-0.7c0.7,0,1.3,0.2,1.7,0.7s0.7,1.1,0.7,2c0,0.1,0,0.1,0,0.2h-3.9c0,0.6,0.2,1,0.5,1.3
		s0.7,0.5,1.1,0.5c0.3,0,0.6-0.1,0.8-0.3S236.1,27.6,236.3,27.3z M233.4,25.8h2.9c0-0.4-0.2-0.8-0.3-1c-0.3-0.3-0.6-0.5-1.1-0.5
		c-0.4,0-0.7,0.1-1,0.4C233.6,25,233.4,25.4,233.4,25.8z"/>
	<path d="M241.7,27l0.9,0.1c-0.1,0.6-0.3,1.1-0.7,1.4c-0.4,0.3-0.9,0.5-1.4,0.5c-0.7,0-1.3-0.2-1.7-0.7c-0.4-0.5-0.6-1.1-0.6-2
		c0-0.6,0.1-1,0.3-1.5s0.5-0.7,0.8-0.9c0.4-0.2,0.8-0.3,1.2-0.3c0.6,0,1,0.1,1.4,0.4c0.4,0.3,0.6,0.7,0.7,1.2l-0.9,0.1
		c-0.1-0.3-0.2-0.6-0.4-0.8c-0.2-0.2-0.5-0.3-0.8-0.3c-0.4,0-0.8,0.2-1.1,0.5c-0.3,0.3-0.4,0.8-0.4,1.5c0,0.7,0.1,1.2,0.4,1.5
		s0.6,0.5,1,0.5c0.3,0,0.6-0.1,0.9-0.3S241.6,27.5,241.7,27z"/>
	<path d="M245.2,28.2l0.1,0.8c-0.2,0.1-0.5,0.1-0.7,0.1c-0.3,0-0.6-0.1-0.7-0.2s-0.3-0.2-0.4-0.4c-0.1-0.2-0.1-0.5-0.1-1v-3h-0.6
		v-0.7h0.6v-1.3l0.9-0.5v1.8h0.9v0.7h-0.9v3c0,0.3,0,0.4,0,0.5c0,0.1,0.1,0.1,0.2,0.2c0.1,0,0.2,0.1,0.3,0.1
		C244.9,28.2,245,28.2,245.2,28.2z"/>
</g>
<g class="st1">
	<path d="M261.4,26.6l0.9-0.1c0,0.4,0.1,0.7,0.3,0.9c0.2,0.2,0.4,0.4,0.7,0.6c0.3,0.1,0.7,0.2,1.1,0.2c0.4,0,0.7-0.1,1-0.2
		c0.3-0.1,0.5-0.3,0.6-0.4c0.1-0.2,0.2-0.4,0.2-0.6c0-0.2-0.1-0.4-0.2-0.6c-0.1-0.2-0.3-0.3-0.6-0.4c-0.2-0.1-0.6-0.2-1.3-0.3
		c-0.7-0.2-1.1-0.3-1.4-0.4c-0.3-0.2-0.6-0.4-0.8-0.7c-0.2-0.3-0.3-0.6-0.3-0.9c0-0.4,0.1-0.7,0.3-1c0.2-0.3,0.5-0.6,0.9-0.7
		c0.4-0.2,0.8-0.2,1.3-0.2c0.5,0,1,0.1,1.4,0.3c0.4,0.2,0.7,0.4,0.9,0.8c0.2,0.3,0.3,0.7,0.4,1.1l-0.9,0.1c0-0.5-0.2-0.8-0.5-1
		s-0.7-0.3-1.2-0.3c-0.6,0-1,0.1-1.3,0.3c-0.3,0.2-0.4,0.5-0.4,0.8c0,0.3,0.1,0.5,0.3,0.6c0.2,0.2,0.7,0.3,1.4,0.5
		c0.8,0.2,1.3,0.3,1.6,0.5c0.4,0.2,0.7,0.4,0.9,0.7c0.2,0.3,0.3,0.6,0.3,1c0,0.4-0.1,0.7-0.3,1.1c-0.2,0.3-0.5,0.6-0.9,0.8
		c-0.4,0.2-0.9,0.3-1.4,0.3c-0.6,0-1.2-0.1-1.6-0.3s-0.8-0.5-1-0.9C261.5,27.5,261.4,27.1,261.4,26.6z"/>
	<path d="M270.2,28.2l0.1,0.8c-0.2,0.1-0.5,0.1-0.7,0.1c-0.3,0-0.6-0.1-0.7-0.2s-0.3-0.2-0.4-0.4c-0.1-0.2-0.1-0.5-0.1-1v-3h-0.6
		v-0.7h0.6v-1.3l0.9-0.5v1.8h0.9v0.7h-0.9v3c0,0.3,0,0.4,0,0.5s0.1,0.1,0.2,0.2s0.2,0.1,0.3,0.1C269.9,28.2,270,28.2,270.2,28.2z"/>
	<path d="M274.4,28.3c-0.3,0.3-0.6,0.5-0.9,0.6s-0.6,0.2-1,0.2c-0.6,0-1-0.1-1.3-0.4c-0.3-0.3-0.5-0.6-0.5-1.1
		c0-0.3,0.1-0.5,0.2-0.7c0.1-0.2,0.3-0.4,0.5-0.5s0.4-0.2,0.6-0.3c0.2,0,0.4-0.1,0.8-0.1c0.7-0.1,1.2-0.2,1.6-0.3c0-0.1,0-0.2,0-0.2
		c0-0.4-0.1-0.6-0.2-0.8c-0.2-0.2-0.6-0.3-1-0.3c-0.4,0-0.7,0.1-0.9,0.2c-0.2,0.1-0.3,0.4-0.4,0.8l-0.9-0.1c0.1-0.4,0.2-0.7,0.4-0.9
		c0.2-0.2,0.4-0.4,0.8-0.5c0.3-0.1,0.7-0.2,1.2-0.2c0.4,0,0.8,0.1,1.1,0.2c0.3,0.1,0.5,0.2,0.6,0.4c0.1,0.2,0.2,0.4,0.3,0.6
		c0,0.1,0,0.4,0,0.8v1.2c0,0.8,0,1.3,0.1,1.5c0,0.2,0.1,0.4,0.2,0.6h-0.9C274.5,28.8,274.5,28.5,274.4,28.3z M274.4,26.3
		c-0.3,0.1-0.8,0.2-1.4,0.3c-0.4,0.1-0.6,0.1-0.8,0.2c-0.1,0.1-0.3,0.2-0.3,0.3c-0.1,0.1-0.1,0.3-0.1,0.4c0,0.2,0.1,0.4,0.3,0.6
		s0.4,0.2,0.8,0.2c0.3,0,0.6-0.1,0.9-0.2c0.3-0.1,0.5-0.4,0.6-0.6c0.1-0.2,0.1-0.5,0.1-0.9V26.3z"/>
	<path d="M276.6,28.9v-5.2h0.8v0.8c0.2-0.4,0.4-0.6,0.6-0.7s0.4-0.2,0.6-0.2c0.3,0,0.6,0.1,0.9,0.3l-0.3,0.8
		c-0.2-0.1-0.4-0.2-0.6-0.2c-0.2,0-0.4,0.1-0.5,0.2c-0.2,0.1-0.3,0.3-0.3,0.5c-0.1,0.3-0.1,0.7-0.1,1v2.7H276.6z"/>
	<path d="M281.9,28.2l0.1,0.8c-0.2,0.1-0.5,0.1-0.7,0.1c-0.3,0-0.6-0.1-0.7-0.2s-0.3-0.2-0.4-0.4c-0.1-0.2-0.1-0.5-0.1-1v-3h-0.6
		v-0.7h0.6v-1.3l0.9-0.5v1.8h0.9v0.7H281v3c0,0.3,0,0.4,0,0.5s0.1,0.1,0.2,0.2s0.2,0.1,0.3,0.1C281.6,28.2,281.7,28.2,281.9,28.2z"
		/>
</g>
</svg>
